<svg width="23" height="23" viewBox="0 0 23 23" fill="none" xmlns="http://www.w3.org/2000/svg">
<path d="M17.8308 22.8499C17.6119 22.8493 17.3938 22.8253 17.18 22.7783C13.1104 21.9364 9.36112 19.9625 6.36381 17.0838C3.43047 14.1988 1.39604 10.5255 0.506672 6.50843C0.401804 6.00779 0.427542 5.48857 0.581412 5.00075C0.735281 4.51293 1.0121 4.07291 1.38524 3.72304L3.98842 1.21748C4.12138 1.09174 4.27936 0.995449 4.45205 0.934895C4.62475 0.87434 4.80827 0.850882 4.99064 0.866052C5.17974 0.88578 5.36222 0.946694 5.52525 1.04451C5.68828 1.14233 5.8279 1.27468 5.93429 1.43224L9.18826 6.24161C9.31029 6.42822 9.36919 6.64907 9.3563 6.87166C9.34342 7.09426 9.25942 7.30684 9.11667 7.47812L7.48318 9.4305C8.13375 10.8703 9.05507 12.1717 10.197 13.2637C11.3315 14.3953 12.6725 15.2988 14.1473 15.9254L16.1713 14.318C16.3413 14.1836 16.5481 14.1042 16.7643 14.0902C16.9806 14.0763 17.1959 14.1285 17.3818 14.2399L22.2952 17.4157C22.4639 17.5164 22.6075 17.6539 22.7154 17.818C22.8233 17.9821 22.8927 18.1685 22.9184 18.3632C22.9441 18.5579 22.9254 18.7558 22.8636 18.9423C22.8019 19.1287 22.6988 19.2988 22.5621 19.4397L20.024 21.9518C19.7357 22.2387 19.3935 22.4657 19.0171 22.6198C18.6407 22.774 18.2375 22.8521 17.8308 22.8499ZM4.88651 2.15462L2.28334 4.66018C2.07343 4.85578 1.91804 5.10264 1.83246 5.3765C1.74688 5.65035 1.73405 5.94177 1.79524 6.22209C2.62222 9.99157 4.52319 13.4409 7.26842 16.1532C10.0891 18.8615 13.6173 20.7181 17.4468 21.5092C17.7367 21.5698 18.0371 21.5576 18.321 21.4735C18.605 21.3895 18.8636 21.2363 19.0738 21.0276L21.6119 18.5156L16.8676 15.4503L14.694 17.1815C14.6108 17.2473 14.5127 17.2918 14.4083 17.3111C14.304 17.3304 14.1965 17.3239 14.0952 17.2921C12.2904 16.6271 10.6548 15.5715 9.3054 14.2008C7.90968 12.8974 6.82628 11.2957 6.13604 9.5151C6.10684 9.40731 6.10587 9.29381 6.13322 9.18553C6.16057 9.07726 6.21533 8.97784 6.29223 8.89685L8.04937 6.79478L4.88651 2.15462Z" fill="white"/>
</svg>
