<svg width="62" height="49" viewBox="0 0 62 49" fill="none" xmlns="http://www.w3.org/2000/svg">
<path d="M0.553628 22.0366L12.0141 46.8376C21.0736 37.228 29.8445 36.0698 37.8978 35.8611C37.5709 34.8452 38.8978 31.8656 40.216 31.3015C39.9165 31.3027 39.6174 31.3034 39.3185 31.3042C31.651 31.3235 24.1091 31.3426 13.7177 39.2814L13.7225 39.2639L4.02756 18.3537L0.553628 22.0366Z" fill="#666666"/>
<path fill-rule="evenodd" clip-rule="evenodd" d="M60.4555 22.0048L50.867 1.55823C43.5276 6.39812 35.7765 6.49416 28.3454 6.58624C20.2248 6.68686 12.4864 6.78275 6.08529 13.0596L15.6713 33.5062C22.3517 27.7507 30.3206 27.6215 38.3138 27.4919C46.0542 27.3665 53.8175 27.2406 60.4555 22.0048ZM51.3985 21.8042C51.8003 20.2425 52.4826 18.7483 53.4091 17.4394L50.0617 10.3879C48.5592 10.091 47.0314 9.47705 45.7216 8.62406C39.7186 10.7333 33.9036 10.7826 28.5028 10.8283C23.7087 10.869 19.2409 10.9068 15.2574 12.3802C14.9086 14.3035 14.0756 16.3084 13.0067 17.6285L15.8967 23.8148C17.6113 23.7504 19.7059 24.2871 21.3808 25.157C26.8761 23.1867 32.51 23.166 37.932 23.1461C42.6593 23.1287 47.2255 23.1119 51.3985 21.8042Z" fill="#666666"/>
<path fill-rule="evenodd" clip-rule="evenodd" d="M30.8808 12.1283C28.0099 12.6295 26.652 15.2432 27.8526 17.9675C29.122 20.8412 32.695 22.659 35.6213 21.905C38.2132 21.2413 39.3921 18.7466 38.2451 16.1516C37.0445 13.4272 33.7466 11.6271 30.8808 12.1283ZM34.6541 19.5832L34.3649 19.71L34.1252 19.7251C33.5611 19.8322 32.921 19.8226 32.3272 19.6728L32.1566 18.7078C32.6447 18.7786 33.2527 18.8434 33.7144 18.7446L34.0261 18.6396C34.5762 18.3627 34.3979 17.67 33.5765 17.5121C33.5546 17.5075 33.5314 17.5032 33.507 17.4991L31.0842 18.0138L30.9955 17.5971L32.2872 17.3227C32.148 17.2896 32.0076 17.2482 31.8698 17.1951L30.9514 17.3902L30.8627 16.9735L31.2994 16.8807C31.071 16.7048 30.8717 16.471 30.7274 16.1577C30.381 15.4015 30.6268 14.6077 31.6012 14.2374L32.1325 14.0956C32.5294 14.0273 32.9942 13.9984 33.5396 14.0412L33.7652 14.9958C33.3398 14.9469 32.8818 14.9008 32.4851 14.9866L32.3354 15.0278C31.5647 15.2391 31.8184 15.9687 32.5048 16.1402C32.6745 16.178 32.849 16.2117 33.025 16.2458C33.238 16.287 33.4532 16.3286 33.6644 16.3782L35.3557 16.0189L35.4444 16.4356L34.4802 16.6405C34.582 16.6861 34.6803 16.737 34.7742 16.7943L35.4885 16.6425L35.5772 17.0593L35.2013 17.1391C35.3328 17.2802 35.4465 17.4461 35.5377 17.6429C35.9783 18.6006 35.4814 19.2616 34.6541 19.5832Z" fill="#666666"/>
<path d="M60.6357 31.468C60.5158 31.2112 60.3351 30.7897 60.1142 30.2742L58.8978 27.8701L53.8978 29.8678C53.8978 29.8678 53.9847 29.9546 54.4413 30.4107C54.8978 30.8667 56.191 32.1584 56.191 32.1584L56.8978 32.8644L60.6357 31.468Z" fill="#666666"/>
<path d="M56.8975 38.858C56.8975 43.8225 52.8675 47.8479 47.8975 47.8479C42.9275 47.8479 38.8975 43.8225 38.8975 38.858C38.8975 33.8936 42.9275 29.8682 47.8975 29.8682C52.8675 29.8682 56.8975 33.8936 56.8975 38.858ZM52.5855 37.096L51.1935 35.7056L46.9615 40.0387L44.9775 38.1588L43.5855 39.5513L46.9615 42.8216L52.5855 37.096Z" fill="#666666"/>
</svg>
