<svg width="60" height="51" viewBox="0 0 60 51" fill="none" xmlns="http://www.w3.org/2000/svg">
<path fill-rule="evenodd" clip-rule="evenodd" d="M5 25.1103C1.9475 22.5906 0 18.7799 0 14.5197C0 6.93823 6.16 0.785156 13.75 0.785156C18.015 0.785156 21.83 2.73047 24.3525 5.77953H35C36.38 5.77953 37.5 6.89827 37.5 8.27672V13.2711H49.1675C51.96 13.2711 53.1675 14.7095 54.0075 16.0355C55.4925 18.3828 57.8475 22.1086 59.28 24.471C59.75 25.2501 60 26.1441 60 27.0556V38.243C60 41.1297 58.46 43.2374 55 43.2374H52.5C52.5 47.3727 49.14 50.7289 45 50.7289C40.86 50.7289 37.5 47.3727 37.5 43.2374H27.5C27.5 47.3727 24.14 50.7289 20 50.7289C15.86 50.7289 12.5 47.3727 12.5 43.2374H7.5C6.12 43.2374 5 42.1186 5 40.7402V25.1103ZM20 40.2407C21.655 40.2407 23 41.5842 23 43.2374C23 44.8905 21.655 46.234 20 46.234C18.345 46.234 17 44.8905 17 43.2374C17 41.5842 18.345 40.2407 20 40.2407ZM45 40.2407C46.655 40.2407 48 41.5842 48 43.2374C48 44.8905 46.655 46.234 45 46.234C43.345 46.234 42 44.8905 42 43.2374C42 41.5842 43.345 40.2407 45 40.2407ZM26.9825 10.7739C27.32 11.9651 27.5 13.2212 27.5 14.5197C27.5 22.1012 21.34 28.2542 13.75 28.2542C12.45 28.2542 11.1925 28.0744 10 27.7373V38.243H14.4125C15.785 36.7097 17.78 35.7458 20 35.7458C22.22 35.7458 24.215 36.7097 25.5875 38.243H39.4125C40.785 36.7097 42.78 35.7458 45 35.7458C47.22 35.7458 49.215 36.7097 50.5875 38.243H55V26.8183L50.7225 19.5041C50.275 18.7374 49.4525 18.2655 48.565 18.2655H37.5V33.2486H32.5V10.7739H26.9825ZM40 20.7627V28.2542H52.5L48.9325 22.0212C48.4875 21.2421 47.66 20.7627 46.7625 20.7627H40ZM13.75 5.77953C18.58 5.77953 22.5 9.69512 22.5 14.5197C22.5 19.3443 18.58 23.2598 13.75 23.2598C8.92 23.2598 5 19.3443 5 14.5197C5 9.69512 8.92 5.77953 13.75 5.77953ZM15 13.2711H20V15.7683H12.5V8.27672H15V13.2711Z" fill="#666666"/>
</svg>
