<svg width="55" height="56" viewBox="0 0 55 56" fill="none" xmlns="http://www.w3.org/2000/svg">
<path d="M27.5 44.1812C37.8125 35.2697 45.8333 28.4505 45.8333 18.4747C45.8333 8.65222 37.6246 0.688477 27.5 0.688477C17.3754 0.688477 9.16667 8.65222 9.16667 18.4747C9.16667 28.4505 17.1875 35.2697 27.5 44.1812ZM14.2977 21.2903H20.625V16.7121H14.2404C15.141 11.113 19.5663 6.68818 25.2083 5.72676V12.1339H29.7917V5.72676C35.4338 6.68818 39.859 11.113 40.7596 16.7121H34.375V21.2903H40.7023C39.6665 26.7108 35.3077 30.9571 29.7917 31.8933V25.8685H25.2083V31.8933C19.6946 30.9571 15.3335 26.7108 14.2977 21.2903ZM45.8333 37.3139H41.706C40.2646 38.8545 38.6902 40.3698 37.0288 41.8921H42.9985L44.1444 44.1812H34.4781L31.8519 46.4703H34.2008L36.1671 51.0484H19.0094L20.9756 46.4703H23.1458C22.2544 45.7011 21.3767 44.9389 20.5173 44.1812H15.9454L13.6285 41.8921H17.9713C16.3098 40.3721 14.74 38.8545 13.2985 37.3139H9.16667L0 55.6266H55L45.8333 37.3139ZM16.5138 51.0484H7.41583L11.4583 42.9725L14.9325 46.4703H18.4823L16.5138 51.0484ZM36.6987 46.4703H45.2925L47.5842 51.0484H38.665L36.6987 46.4703Z" fill="#666666"/>
</svg>
