<svg width="60" height="46" viewBox="0 0 60 46" fill="none" xmlns="http://www.w3.org/2000/svg">
<path fill-rule="evenodd" clip-rule="evenodd" d="M12.5 20.3838V22.8809H32.5V5.40063H7.5V2.90344C7.5 1.52499 8.62 0.40625 10 0.40625H35C36.38 0.40625 37.5 1.52499 37.5 2.90344V7.89781H49.1675C51.96 7.89781 53.1675 9.33619 54.0075 10.6622C55.4925 13.0096 57.8475 16.7354 59.28 19.0977C59.75 19.8768 60 20.7708 60 21.6823V32.8697C60 35.5891 58.1425 37.8641 55 37.8641H52.5C52.5 41.9994 49.14 45.3556 45 45.3556C40.86 45.3556 37.5 41.9994 37.5 37.8641H27.5C27.5 41.9994 24.14 45.3556 20 45.3556C15.86 45.3556 12.5 41.9994 12.5 37.8641H10C8.62 37.8641 7.5 36.7453 7.5 35.3669V20.3838H2.5V15.3894H20V20.3838H12.5ZM20 34.8674C21.655 34.8674 23 36.2109 23 37.8641C23 39.5172 21.655 40.8607 20 40.8607C18.345 40.8607 17 39.5172 17 37.8641C17 36.2109 18.345 34.8674 20 34.8674ZM45 34.8674C46.655 34.8674 48 36.2109 48 37.8641C48 39.5172 46.655 40.8607 45 40.8607C43.345 40.8607 42 39.5172 42 37.8641C42 36.2109 43.345 34.8674 45 34.8674ZM37.5 27.8753H12.5V32.8697H14.4125C15.785 31.3364 17.78 30.3725 20 30.3725C22.22 30.3725 24.215 31.3364 25.5875 32.8697H39.4125C40.785 31.3364 42.78 30.3725 45 30.3725C47.22 30.3725 49.215 31.3364 50.5875 32.8697H55V21.4451L50.7225 14.1308C50.275 13.3642 49.4525 12.8922 48.565 12.8922H37.5V27.8753ZM40 15.3894V22.8809H52.5L48.9325 16.648C48.4875 15.8688 47.66 15.3894 46.7625 15.3894H40ZM0 7.89781H20V12.8922H0V7.89781Z" fill="#666666"/>
</svg>
