<svg width="51" height="52" viewBox="0 0 51 52" fill="none" xmlns="http://www.w3.org/2000/svg">
<path d="M33.9957 9.09103C39.8234 12.4468 45.0026 18.1055 45.9903 26.4446C42.8805 24.4668 39.2459 23.5535 35.6755 23.8511C32.8934 18.0047 26.5065 14.2186 19.659 14.7886C18.1809 11.6754 15.6669 9.10477 12.564 7.47722C20.3419 4.17865 27.8242 5.60933 33.9957 9.09103ZM35.3569 2.00401L34.1263 4.08937C29.6644 1.98799 25.3607 1.09753 21.3548 1.09753C12.2455 1.09753 4.68068 5.6986 0.294428 11.1352C7.19464 7.96251 15.8388 12.8497 16.4828 20.2893C23.289 17.1624 31.8576 21.887 32.5015 29.3472C39.3971 26.1745 48.2109 31.1533 48.8617 38.5974C52.5994 29.4136 51.4421 15.3975 38.1688 6.38762L39.4017 4.2931C40.0457 3.19663 39.6653 1.79799 38.5469 1.16621C37.4148 0.52984 35.9963 0.918985 35.3569 2.00401ZM26.3507 26.4034L13.1255 47.7858C11.228 51.0706 7.02047 52.1923 3.72964 50.2992C0.443386 48.4038 -0.684114 44.2034 1.21339 40.9208L2.35922 38.9385L6.32839 41.2276L5.18255 43.2099C4.55235 44.2995 4.92818 45.7027 6.0213 46.3345C7.11901 46.964 8.5238 46.5886 9.15401 45.499L22.4067 24.0708C24.0155 24.4005 25.2048 25.0437 26.3507 26.4034Z" fill="#666666"/>
</svg>
