<svg width="50" height="50" viewBox="0 0 50 50" fill="none" xmlns="http://www.w3.org/2000/svg">
<path fill-rule="evenodd" clip-rule="evenodd" d="M16.4979 36.2021L6.35417 8.33333H2.08333C1.52917 8.33333 1 8.11458 0.610417 7.72292C0.21875 7.33333 0 6.80208 0 6.25C0 5.1 0.93125 4.16667 2.08333 4.16667H9.27083L20.6646 35.4687C22.4167 35.6792 23.9771 36.5104 25.1208 37.7354L48.575 29.2L50 33.1146L26.9812 41.4917C27.0479 41.8875 27.0833 42.2937 27.0833 42.7083C27.0833 46.7333 23.8146 50 19.7917 50C15.7667 50 12.5 46.7333 12.5 42.7083C12.5 39.8687 14.1271 37.4062 16.4979 36.2021ZM19.7917 39.975C21.3 39.975 22.525 41.2 22.525 42.7083C22.525 44.2167 21.3 45.4437 19.7917 45.4437C18.2812 45.4437 17.0562 44.2167 17.0562 42.7083C17.0562 41.2 18.2812 39.975 19.7917 39.975ZM47.5292 26.4083L23.7417 35.0667L18.0417 19.4042L41.8292 10.7458L47.5292 26.4083ZM29.3833 19.7104L23.3833 21.8937L26.2333 29.725L42.1896 23.9187L39.3396 16.0875L33.2979 18.2854L34.7229 22.2L30.8083 23.6271L29.3833 19.7104ZM34.95 11.0333L17.3292 17.4458L13.3146 6.4125L30.9333 0L34.95 11.0333ZM28.4437 5.33958L18.6542 8.90417L19.8208 12.1062L29.6083 8.54375L28.4437 5.33958Z" fill="url(#paint0_linear)"/>
<defs>
<linearGradient id="paint0_linear" x1="25" y1="0" x2="25" y2="50" gradientUnits="userSpaceOnUse">
<stop stop-color="#EC0008"/>
<stop offset="0.9999" stop-color="#B72126"/>
<stop offset="1" stop-opacity="0"/>
</linearGradient>
</defs>
</svg>
