<svg width="60" height="50" viewBox="0 0 60 50" fill="none" xmlns="http://www.w3.org/2000/svg">
<path fill-rule="evenodd" clip-rule="evenodd" d="M5 24.3525C1.9475 21.83 0 18.015 0 13.75C0 6.16 6.16 0 13.75 0C18.015 0 21.83 1.9475 24.3525 5H35C36.38 5 37.5 6.12 37.5 7.5V12.5H49.1675C51.96 12.5 53.1675 13.94 54.0075 15.2675C55.4925 17.6175 57.8475 21.3475 59.28 23.7125C59.75 24.4925 60 25.3875 60 26.3V37.5C60 40.39 58.46 42.5 55 42.5H52.5C52.5 46.64 49.14 50 45 50C40.86 50 37.5 46.64 37.5 42.5H27.5C27.5 46.64 24.14 50 20 50C15.86 50 12.5 46.64 12.5 42.5H7.5C6.12 42.5 5 41.38 5 40V24.3525ZM20 39.5C21.655 39.5 23 40.845 23 42.5C23 44.155 21.655 45.5 20 45.5C18.345 45.5 17 44.155 17 42.5C17 40.845 18.345 39.5 20 39.5ZM45 39.5C46.655 39.5 48 40.845 48 42.5C48 44.155 46.655 45.5 45 45.5C43.345 45.5 42 44.155 42 42.5C42 40.845 43.345 39.5 45 39.5ZM26.9825 10C27.32 11.1925 27.5 12.45 27.5 13.75C27.5 21.34 21.34 27.5 13.75 27.5C12.45 27.5 11.1925 27.32 10 26.9825V37.5H14.4125C15.785 35.965 17.78 35 20 35C22.22 35 24.215 35.965 25.5875 37.5H39.4125C40.785 35.965 42.78 35 45 35C47.22 35 49.215 35.965 50.5875 37.5H55V26.0625L50.7225 18.74C50.275 17.9725 49.4525 17.5 48.565 17.5H37.5V32.5H32.5V10H26.9825ZM40 20V27.5H52.5L48.9325 21.26C48.4875 20.48 47.66 20 46.7625 20H40ZM13.75 5C18.58 5 22.5 8.92 22.5 13.75C22.5 18.58 18.58 22.5 13.75 22.5C8.92 22.5 5 18.58 5 13.75C5 8.92 8.92 5 13.75 5ZM15 12.5H20V15H12.5V7.5H15V12.5Z" fill="url(#paint0_linear)"/>
<defs>
<linearGradient id="paint0_linear" x1="30" y1="0" x2="30" y2="50" gradientUnits="userSpaceOnUse">
<stop stop-color="#EC0008"/>
<stop offset="1" stop-color="#B72126"/>
</linearGradient>
</defs>
</svg>
