<svg width="55" height="43" viewBox="0 0 55 43" fill="none" xmlns="http://www.w3.org/2000/svg">
<path fill-rule="evenodd" clip-rule="evenodd" d="M6.875 35.25H2.29167C1.02667 35.25 0 34.2233 0 32.9583V3.16667C0 1.90167 1.02667 0.875 2.29167 0.875H32.0833C33.3483 0.875 34.375 1.90167 34.375 3.16667V7.75H45.0702C47.63 7.75 48.7369 9.07 49.5069 10.2869C50.8681 12.441 53.0269 15.8602 54.34 18.0281C54.7708 18.7431 55 19.5635 55 20.4V30.6667C55 33.1623 53.2973 35.25 50.4167 35.25H48.125C48.125 39.045 45.045 42.125 41.25 42.125C37.455 42.125 34.375 39.045 34.375 35.25H20.625C20.625 39.045 17.545 42.125 13.75 42.125C9.955 42.125 6.875 39.045 6.875 35.25ZM13.75 32.5C15.2671 32.5 16.5 33.7329 16.5 35.25C16.5 36.7671 15.2671 38 13.75 38C12.2329 38 11 36.7671 11 35.25C11 33.7329 12.2329 32.5 13.75 32.5ZM41.25 32.5C42.7671 32.5 44 33.7329 44 35.25C44 36.7671 42.7671 38 41.25 38C39.7329 38 38.5 36.7671 38.5 35.25C38.5 33.7329 39.7329 32.5 41.25 32.5ZM34.375 26.0833H4.58333V30.6667H8.62813C9.88625 29.2596 11.715 28.375 13.75 28.375C15.785 28.375 17.6138 29.2596 18.8719 30.6667H36.1281C37.3863 29.2596 39.215 28.375 41.25 28.375C43.285 28.375 45.1138 29.2596 46.3719 30.6667H50.4167V20.1823L46.4956 13.47C46.0854 12.7665 45.3315 12.3333 44.5179 12.3333H34.375V26.0833ZM29.7917 5.45833H4.58333V21.5H29.7917V5.45833ZM36.6667 14.625V21.5H48.125L44.8548 15.78C44.4469 15.065 43.6883 14.625 42.8656 14.625H36.6667Z" fill="url(#paint0_linear)"/>
<defs>
<linearGradient id="paint0_linear" x1="27.5" y1="0.875" x2="27.5" y2="42.125" gradientUnits="userSpaceOnUse">
<stop stop-color="#EC0008"/>
<stop offset="0.9999" stop-color="#B72126"/>
<stop offset="1" stop-opacity="0"/>
</linearGradient>
</defs>
</svg>
