<svg width="60" height="46" viewBox="0 0 60 46" fill="none" xmlns="http://www.w3.org/2000/svg">
<path fill-rule="evenodd" clip-rule="evenodd" d="M12.5 20.5V23H32.5V5.5H7.5V3C7.5 1.62 8.62 0.5 10 0.5H35C36.38 0.5 37.5 1.62 37.5 3V8H49.1675C51.96 8 53.1675 9.44 54.0075 10.7675C55.4925 13.1175 57.8475 16.8475 59.28 19.2125C59.75 19.9925 60 20.8875 60 21.8V33C60 35.7225 58.1425 38 55 38H52.5C52.5 42.14 49.14 45.5 45 45.5C40.86 45.5 37.5 42.14 37.5 38H27.5C27.5 42.14 24.14 45.5 20 45.5C15.86 45.5 12.5 42.14 12.5 38H10C8.62 38 7.5 36.88 7.5 35.5V20.5H2.5V15.5H20V20.5H12.5V20.5ZM20 35C21.655 35 23 36.345 23 38C23 39.655 21.655 41 20 41C18.345 41 17 39.655 17 38C17 36.345 18.345 35 20 35V35ZM45 35C46.655 35 48 36.345 48 38C48 39.655 46.655 41 45 41C43.345 41 42 39.655 42 38C42 36.345 43.345 35 45 35ZM37.5 28H12.5V33H14.4125C15.785 31.465 17.78 30.5 20 30.5C22.22 30.5 24.215 31.465 25.5875 33H39.4125C40.785 31.465 42.78 30.5 45 30.5C47.22 30.5 49.215 31.465 50.5875 33H55V21.5625L50.7225 14.24C50.275 13.4725 49.4525 13 48.565 13H37.5V28V28ZM40 15.5V23H52.5L48.9325 16.76C48.4875 15.98 47.66 15.5 46.7625 15.5H40ZM0 8H20V13H0V8Z" fill="url(#paint0_linear)"/>
<defs>
<linearGradient id="paint0_linear" x1="30" y1="0.5" x2="30" y2="45.5" gradientUnits="userSpaceOnUse">
<stop stop-color="#EC0008"/>
<stop offset="0.291667" stop-color="#DC0A11"/>
<stop offset="1" stop-color="#B72126"/>
</linearGradient>
</defs>
</svg>
