<svg width="51" height="55" viewBox="0 0 51 55" fill="none" xmlns="http://www.w3.org/2000/svg">
<path d="M4.87508 50.4167V4.58333H46.1251V31.036C46.1251 40.4479 32.3751 36.6667 32.3751 36.6667C32.3751 36.6667 35.8538 50.4167 26.3297 50.4167H4.87508ZM50.7084 32.9679V0H0.291748V55H28.2249C35.4734 55 50.7084 38.4473 50.7084 32.9679ZM25.4153 20.3065C24.863 21.9221 24.8607 21.6104 25.4153 23.2329L25.5001 23.744C25.5001 24.2596 25.2457 24.7546 24.7942 25.0685C23.3551 26.0654 23.5453 25.8133 23.0045 27.4358C22.7776 28.1119 22.1222 28.5702 21.382 28.5702H21.3797C19.6059 28.5633 19.913 28.4694 18.4807 29.4754C18.1851 29.6863 17.8322 29.7917 17.4792 29.7917C17.1263 29.7917 16.7734 29.6863 16.4755 29.4754C15.0432 28.4694 15.3526 28.5656 13.5765 28.5702H13.572C12.834 28.5702 12.1786 28.1119 11.954 27.4358C11.4132 25.811 11.5965 26.0631 10.1642 25.0685C9.71279 24.7569 9.45841 24.2573 9.45841 23.744L9.54321 23.2352C10.0978 21.6196 10.0978 21.9313 9.54321 20.3088L9.45841 19.7977C9.45841 19.2821 9.71279 18.7871 10.1665 18.4731C11.5988 17.4762 11.4132 17.7283 11.9563 16.1035C12.1809 15.4252 12.8363 14.9692 13.5742 14.9692H13.5788C15.348 14.976 15.0363 15.0769 16.4755 14.064C16.7734 13.8554 17.1263 13.75 17.4792 13.75C17.8322 13.75 18.1851 13.8554 18.483 14.064C19.9153 15.07 19.6059 14.9738 21.382 14.9692H21.3842C22.1245 14.9692 22.7799 15.4252 23.0067 16.1035C23.5476 17.726 23.3574 17.474 24.7965 18.4708C25.2457 18.7848 25.5001 19.2821 25.5001 19.7977L25.4153 20.3065ZM21.4897 21.7708C21.4897 19.5571 19.6953 17.7604 17.4792 17.7604C15.2632 17.7604 13.4688 19.5571 13.4688 21.7708C13.4688 23.9846 15.2632 25.7812 17.4792 25.7812C19.6953 25.7812 21.4897 23.9846 21.4897 21.7708ZM14.4611 30.8596C13.5834 30.8596 12.889 30.7748 12.3138 30.6144C11.9609 34.1298 10.7555 36.7675 8.31258 39.3135C9.29341 39.435 10.547 39.2058 11.5576 38.6719C11.922 39.4006 12.3047 40.3104 12.4376 41.25C14.7407 38.6169 16.1799 35.459 16.7161 32.0031C15.6345 31.7946 15.3022 31.4348 14.4611 30.8596ZM20.4974 30.8596C19.654 31.4394 19.3034 31.7992 18.2447 32.0031C18.7809 35.459 20.2201 38.6169 22.5209 41.25C22.6538 40.3104 23.0365 39.4006 23.4009 38.6719C24.4115 39.2035 25.6651 39.435 26.6459 39.3135C24.2076 36.7721 23.0159 34.1206 22.6607 30.6121C22.0832 30.7725 21.3865 30.8596 20.4974 30.8596ZM41.5417 13.75H30.0834V16.0417H41.5417V13.75ZM41.5417 18.3333H30.0834V20.625H41.5417V18.3333ZM41.5417 22.9167H30.0834V25.2083H41.5417V22.9167ZM36.9584 27.5H30.0834V29.7917H36.9584V27.5Z" fill="url(#paint0_linear)"/>
<defs>
<linearGradient id="paint0_linear" x1="25.5001" y1="0" x2="25.5001" y2="55" gradientUnits="userSpaceOnUse">
<stop stop-color="#EC0008"/>
<stop offset="1" stop-color="#B72126"/>
</linearGradient>
</defs>
</svg>
