<svg width="46" height="50" viewBox="0 0 46 50" fill="none" xmlns="http://www.w3.org/2000/svg">
<path d="M10.4997 25H31.333V27.0833H10.4997V25ZM26.783 18.75H10.4997V20.8333H29.3476C28.4101 20.2437 27.5497 19.5458 26.783 18.75ZM10.4997 14.5833H24.0413C23.7622 13.9167 23.5476 13.2167 23.3768 12.5H10.4997V14.5833ZM37.583 22.8646V28.2146C37.583 36.7708 25.083 33.3333 25.083 33.3333C25.083 33.3333 28.2455 45.8333 19.5872 45.8333H4.24967V4.16667H24.0413C24.6913 2.60625 25.6309 1.2 26.783 0H0.0830078V50H21.3101C27.8997 50 41.7497 34.9521 41.7497 29.9708V21.875C40.4518 22.4167 39.0476 22.7521 37.583 22.8646ZM45.9163 9.375C45.9163 14.5521 41.7184 18.75 36.5413 18.75C31.3643 18.75 27.1663 14.5521 27.1663 9.375C27.1663 4.19792 31.3643 0 36.5413 0C41.7184 0 45.9163 4.19792 45.9163 9.375ZM41.4247 7.5375L39.9747 6.0875L35.5663 10.6062L33.4997 8.64583L32.0497 10.0979L35.5663 13.5083L41.4247 7.5375Z" fill="url(#paint0_linear)"/>
<defs>
<linearGradient id="paint0_linear" x1="22.9997" y1="0" x2="22.9997" y2="50" gradientUnits="userSpaceOnUse">
<stop stop-color="#EC0008"/>
<stop offset="1" stop-color="#B72126"/>
</linearGradient>
</defs>
</svg>
