<svg width="65" height="39" viewBox="0 0 65 39" fill="none" xmlns="http://www.w3.org/2000/svg">
<path d="M0 21.0219L5.2325 0.541504L14.7821 2.95463L9.43583 23.435L0 21.0219ZM49.874 23.4648C50.2125 24.2421 50.3804 25.0844 50.2937 25.9294C50.0798 28.1746 48.4033 29.8511 46.3477 30.2682C45.6598 31.7117 44.3625 32.6705 42.8675 32.9819C42.2067 34.3686 40.9121 35.3923 39.3575 35.7173C38.4773 37.5265 36.7304 38.4582 34.8237 38.4582C33.4263 38.4582 32.1046 37.9626 31.1512 37.0011C28.6379 38.0953 26 36.8711 25.1063 34.6638C23.4921 34.4796 22.1081 33.4396 21.4988 31.9636C19.8765 31.7713 18.4817 30.7232 17.8696 29.2471C14.6521 28.8734 12.8646 25.3471 14.625 22.4898C13.994 22.3328 13.2871 22.2082 12.591 22.0782L13.6283 18.1132C15.0475 18.384 16.3638 18.7063 17.5635 19.0828C20.0362 17.3088 23.3892 18.2838 24.4671 20.9217C26.1138 21.1086 27.4896 22.1784 28.08 23.63C29.6996 23.8142 31.089 24.8515 31.6956 26.333C33.6944 26.555 35.379 28.1015 35.62 30.2167L35.6254 30.8261L36.8442 31.9148C37.5267 32.703 38.6858 32.7923 39.4442 32.2019C40.2188 31.598 40.3217 30.5119 39.6473 29.74L35.7012 26.2761C35.276 25.8996 35.8421 25.2469 36.2781 25.6234L40.3162 29.1659C41.0123 29.9621 42.1904 30.065 42.9406 29.4746C43.7125 28.8788 43.7965 27.7657 43.1248 26.9938L37.9898 22.5846C37.551 22.219 38.1198 21.5555 38.5531 21.9292L43.8181 26.4494C44.4898 27.2132 45.6544 27.3567 46.4371 26.7582C47.2035 26.1623 47.3823 25.1169 46.4317 24.0634C43.0733 21.0517 39.1977 17.5498 35.211 13.7825C34.2496 15.1042 29.3177 17.8505 26.3304 17.8505C23.3431 17.8505 21.5123 16.0223 21.0221 14.2132C20.5969 12.6369 21.1602 11.1284 22.4629 10.3673C23.9119 9.51963 25.3202 8.3063 26.6933 6.93317C24.5565 5.34609 23.4352 5.85526 21.0952 6.96838C19.7329 7.61296 18.116 8.37942 16.074 8.72067L17.2575 4.19775C20.8515 2.87609 24.161 -0.157246 29.4585 3.97296L30.7883 2.47796C31.8581 1.26734 33.2556 0.541504 34.859 0.541504C36.0398 0.541504 37.3235 0.977545 38.6723 1.67088C42.7835 3.81859 44.8825 5.07255 47.9971 5.17546L49.0642 9.25963H49.0425C44.1756 9.349 41.795 7.8838 36.8117 5.27838C35.4223 4.56609 34.4852 4.41713 33.8325 5.15921C31.1675 8.19255 28.3319 11.4128 25.1875 13.4548C26.7394 14.6953 30.6556 12.2144 32.2075 10.9632C32.8846 10.4188 33.9354 9.69567 35.2625 9.69567C36.7602 9.69567 37.849 10.5921 38.6317 11.3721C40.4733 13.2138 45.5921 17.8423 47.859 19.8817C49.0344 19.2263 50.2098 18.7036 51.4096 18.2432L52.4469 22.2163C51.5829 22.5792 50.7325 22.9909 49.874 23.4648ZM19.9821 25.8346L21.6315 23.8115C22.3085 22.999 22.2137 21.8561 21.4148 21.2548C20.6131 20.6509 19.4187 20.8269 18.7444 21.634L17.0923 23.6625C16.4125 24.4696 16.5127 25.6153 17.309 26.2138C18.1052 26.8123 19.305 26.6444 19.9821 25.8346ZM23.5788 28.5592L25.2498 26.5144C25.9215 25.7101 25.8267 24.559 25.0277 23.9605C24.2315 23.3619 23.0398 23.5298 22.3627 24.345L20.6944 26.3871C20.0146 27.1996 20.1256 28.3155 20.9273 28.9221C21.7317 29.5234 22.9017 29.3744 23.5788 28.5592ZM27.216 31.2459L28.8627 29.2228C29.5425 28.413 29.445 27.2701 28.646 26.6661C27.8444 26.0648 26.6554 26.2409 25.9756 27.0507L24.3263 29.0684C23.6465 29.8809 23.7494 31.0292 24.5483 31.6278C25.3419 32.2263 26.5362 32.0611 27.216 31.2459ZM32.2671 29.3744C31.4708 28.7678 30.2765 28.9438 29.594 29.7509L27.9365 31.7848C27.2621 32.5946 27.3596 33.7403 28.1585 34.3388C28.9575 34.9373 30.1492 34.7721 30.829 33.9542L32.481 31.923C33.1662 31.1186 33.0687 29.973 32.2671 29.3744ZM36.1319 32.4457L35.4819 31.8715C35.3112 32.5188 35.0133 33.1282 34.5827 33.6319L33.6131 34.8263C33.9733 35.1134 34.3931 35.303 34.8265 35.303C35.23 35.303 35.6254 35.1784 35.9504 34.9292C36.7196 34.3253 36.809 33.2176 36.1319 32.4457ZM50.2179 2.95463L55.5642 23.435L65 21.0219L59.7675 0.541504L50.2179 2.95463Z" fill="url(#paint0_linear)"/>
<defs>
<linearGradient id="paint0_linear" x1="32.5" y1="0.541504" x2="32.5" y2="38.4582" gradientUnits="userSpaceOnUse">
<stop stop-color="#EC0008"/>
<stop offset="0.9999" stop-color="#B72126"/>
<stop offset="1" stop-opacity="0"/>
</linearGradient>
</defs>
</svg>
