<svg width="55" height="55" viewBox="0 0 55 55" fill="none" xmlns="http://www.w3.org/2000/svg">
<path d="M43.5463 11.456L44.6944 16.0417L48.1227 6.875L38.9606 10.3125L43.5463 11.456ZM44.4996 0C38.7017 0 33.9992 4.61542 33.9992 10.3102C33.9992 16.0944 38.5917 20.0452 44.4996 25.2083C50.4075 20.0452 55 16.0921 55 10.3102C55 4.61542 50.2975 0 44.4996 0ZM44.4996 17.8544C40.441 17.8544 37.1502 14.5635 37.1502 10.505C37.1502 6.44417 40.441 3.15104 44.4996 3.15104C48.5581 3.15104 51.849 6.44417 51.849 10.505C51.849 14.5635 48.5581 17.8544 44.4996 17.8544ZM43.6838 32.0925C43.6838 30.8665 44.6783 29.8742 45.9021 29.8742C47.1281 29.8742 48.1227 30.8665 48.1227 32.0925C48.1227 33.3185 47.1281 34.3108 45.9021 34.3108C44.6783 34.3108 43.6838 33.3185 43.6838 32.0925ZM55 21.4844V45.8333L40.2073 55L27.5 45.8333L14.7927 55L0 45.8333V4.58333L14.7927 13.75L27.5 4.58333L29.7917 6.36396V22.9167H25.2083V11.8869L16.0417 18.5006V27.5H13.75V18.496L4.58333 12.815V43.2804L13.75 48.9615V38.9583H16.0417V48.4481L25.2083 41.8367V34.375H29.7917V41.8344L38.9583 48.4458V38.9583H41.25V48.9615L50.4167 43.2804V26.0929C52.0781 24.5942 53.6456 23.0794 55 21.4844ZM34.925 33.5202L31.1231 31.3546L32.4592 29.0079L36.2633 31.1735L34.925 33.5202ZM40.0858 35.365C39.0935 35.365 38.1265 35.1656 37.2144 34.7715L38.2846 32.2919C38.8575 32.5371 39.4625 32.6631 40.0858 32.6631C40.5946 32.6631 41.0965 32.5783 41.5777 32.411L42.4669 34.9594C41.7015 35.2298 40.9017 35.365 40.0858 35.365ZM15.0563 32.615C15.6521 32.615 16.2342 32.5004 16.7842 32.2758L17.8085 34.7738C16.9331 35.1335 16.0073 35.3146 15.0563 35.3146C14.2015 35.3146 13.3581 35.1633 12.5515 34.8677L13.4842 32.3354C13.9906 32.521 14.52 32.615 15.0563 32.615ZM27.3602 27.1975C28.3227 27.1975 29.2623 27.3854 30.1492 27.7567L29.111 30.2477C28.5542 30.0163 27.9652 29.8971 27.3602 29.8971C26.8331 29.8971 26.3129 29.9888 25.8156 30.1698L24.8967 27.6306C25.6896 27.3419 26.5192 27.1975 27.3602 27.1975ZM9.09563 29.8742C10.3217 29.8742 11.3163 30.8665 11.3163 32.0925C11.3163 33.3185 10.3217 34.3108 9.09563 34.3108C7.86958 34.3108 6.875 33.3185 6.875 32.0925C6.875 30.8665 7.86958 29.8742 9.09563 29.8742ZM18.7458 31.1575L22.5019 28.9094L23.8883 31.2263L20.1323 33.4767L18.7458 31.1575Z" fill="url(#paint0_linear)"/>
<defs>
<linearGradient id="paint0_linear" x1="27.5" y1="0" x2="27.5" y2="55" gradientUnits="userSpaceOnUse">
<stop stop-color="#EC0008"/>
<stop offset="1" stop-color="#B72126"/>
</linearGradient>
</defs>
</svg>
