<svg width="60" height="48" viewBox="0 0 60 48" fill="none" xmlns="http://www.w3.org/2000/svg">
<path d="M0.027713 20.2501L11.0071 45.2955C20.2505 35.8516 29.0422 34.8616 37.098 34.8079C36.7907 33.7848 38.175 30.828 39.5038 30.2887C39.2044 30.2842 38.9053 30.2792 38.6064 30.2742C30.94 30.1456 23.3991 30.0192 12.8563 37.765L12.8615 37.7476L3.57212 16.6308L0.027713 20.2501Z" fill="url(#paint0_linear)"/>
<path fill-rule="evenodd" clip-rule="evenodd" d="M59.9191 21.3738L50.7272 0.723002C43.2957 5.42587 35.5442 5.37249 28.1127 5.32132C19.9916 5.2654 12.2528 5.21211 5.7317 11.3713L14.9211 32.0221C21.7114 26.3901 29.6813 26.4145 37.6755 26.439C45.4169 26.4627 53.1811 26.4864 59.9191 21.3738ZM50.8676 20.9982C51.2995 19.4428 52.0106 17.9604 52.9621 16.6681L49.7516 9.54545C48.255 9.21923 46.7394 8.57528 45.4463 7.69622C39.4036 9.69166 33.5888 9.62882 28.1881 9.57044C23.3941 9.51863 18.9264 9.47034 14.9152 10.8683C14.5294 12.7867 13.6578 14.7774 12.5636 16.0781L15.3336 22.326C17.0491 22.2945 19.1329 22.8721 20.7908 23.7752C26.3231 21.9091 31.9563 21.997 37.3777 22.0817C42.1045 22.1555 46.6702 22.2267 50.8676 20.9982Z" fill="url(#paint1_linear)"/>
<path fill-rule="evenodd" clip-rule="evenodd" d="M30.5406 10.9175C27.6606 11.3638 26.2524 13.9537 27.4002 16.7038C28.6139 19.6046 32.1511 21.493 35.0914 20.7948C37.6957 20.1805 38.9225 17.7062 37.8258 15.0866C36.6781 12.3365 33.4156 10.4711 30.5406 10.9175ZM34.1692 18.4522L33.8776 18.5735L33.6377 18.584C33.0716 18.6804 32.4319 18.6584 31.8411 18.497L31.6891 17.5278C32.1757 17.6081 32.7824 17.6847 33.2459 17.5947L33.5595 17.4956C34.1149 17.2291 33.95 16.5322 33.1318 16.3584C33.11 16.3533 33.0869 16.3485 33.0626 16.344L30.6303 16.8125L30.5497 16.3936L31.8464 16.1439C31.7079 16.1081 31.5683 16.0639 31.4315 16.0081L30.5096 16.1857L30.4289 15.7668L30.8673 15.6824C30.6423 15.5019 30.4476 15.2641 30.3094 14.9477C29.9777 14.1841 30.2387 13.3944 31.2201 13.0425L31.7541 12.9107C32.1522 12.8501 32.6175 12.8301 33.1619 12.8835L33.3691 13.8433C32.9446 13.7862 32.4877 13.7312 32.0893 13.8094L31.9389 13.8478C31.1642 14.0444 31.4038 14.7796 32.0868 14.9645C32.2557 15.0056 32.4296 15.0427 32.6049 15.0802C32.8171 15.1255 33.0314 15.1714 33.2416 15.2251L34.9395 14.8981L35.0202 15.3169L34.0522 15.5033C34.1531 15.551 34.2504 15.6038 34.3431 15.663L35.0602 15.5249L35.1409 15.9437L34.7635 16.0164C34.8923 16.1601 35.0028 16.3284 35.0901 16.5271C35.5121 17.4942 35.0026 18.1462 34.1692 18.4522Z" fill="url(#paint2_linear)"/>
<path d="M59.9164 30.8493C59.8016 30.59 59.6291 30.1646 59.4181 29.6443L58.2484 27.2145L53.2107 29.1177C53.2107 29.1177 53.296 29.2062 53.7436 29.6715C54.1913 30.1368 55.4593 31.4546 55.4593 31.4546L56.1523 32.175L59.9164 30.8493Z" fill="url(#paint3_linear)"/>
<path d="M56.0369 38.1741C55.9411 43.1432 51.8341 47.0947 46.865 46.9989C41.8959 46.903 37.9444 42.796 38.0403 37.8269C38.1361 32.8579 42.2431 28.9063 47.2122 29.0022C52.1813 29.0981 56.1328 33.2051 56.0369 38.1741ZM51.7597 36.3273L50.3949 34.9087L46.08 39.1643L44.1326 37.2443L42.714 38.6112L46.0262 41.9497L51.7597 36.3273Z" fill="url(#paint4_linear)"/>
<defs>
<linearGradient id="paint0_linear" x1="30.2434" y1="0.501158" x2="29.756" y2="45.4985" gradientUnits="userSpaceOnUse">
<stop stop-color="#EC0008"/>
<stop offset="1" stop-color="#B72126"/>
</linearGradient>
<linearGradient id="paint1_linear" x1="30.2434" y1="0.501158" x2="29.756" y2="45.4985" gradientUnits="userSpaceOnUse">
<stop stop-color="#EC0008"/>
<stop offset="1" stop-color="#B72126"/>
</linearGradient>
<linearGradient id="paint2_linear" x1="30.2434" y1="0.501158" x2="29.756" y2="45.4985" gradientUnits="userSpaceOnUse">
<stop stop-color="#EC0008"/>
<stop offset="1" stop-color="#B72126"/>
</linearGradient>
<linearGradient id="paint3_linear" x1="30.2434" y1="0.501158" x2="29.756" y2="45.4985" gradientUnits="userSpaceOnUse">
<stop stop-color="#EC0008"/>
<stop offset="1" stop-color="#B72126"/>
</linearGradient>
<linearGradient id="paint4_linear" x1="47.2122" y1="29.0022" x2="46.865" y2="46.9989" gradientUnits="userSpaceOnUse">
<stop stop-color="#EC0008"/>
<stop offset="1" stop-color="#B72126"/>
</linearGradient>
</defs>
</svg>
