<svg width="58" height="50" viewBox="0 0 58 50" fill="none" xmlns="http://www.w3.org/2000/svg">
<path d="M29.3425 1.48L15.73 10.9275C11.97 13.535 11.0375 18.6975 13.6475 22.455L27.8175 42.875C31.035 47.5125 36.1975 50 41.445 50C50.4575 50 58 42.7025 58 33.415C58 30.155 57.04 26.8625 55.045 23.9825L40.875 3.5625C39.265 1.245 36.685 0 34.06 0C32.43 0 30.7825 0.48 29.3425 1.48ZM31.705 4.8825C33.5825 3.58 36.165 4.0475 37.4725 5.9225L41.01 11.0275L31.23 17.76L25.33 9.2525L31.705 4.8825ZM48.5175 43.64C42.8875 47.5475 35.1275 46.145 31.22 40.515L22.955 28.605L43.3725 14.435L51.6425 26.345C55.5475 31.975 54.145 39.7325 48.5175 43.64ZM8.44 14.7225L2.1925 10.3725L3.7425 8.145L9.42 12.1C8.9975 12.93 8.67 13.8025 8.44 14.7225ZM10.195 24.7375L4.4475 28.775L2.8875 26.555L8.9225 22.3075C9.26 23.1525 9.67 23.97 10.195 24.7375ZM8.25 19.9725H0.5V17.26H8.0725C8.04 18.175 8.085 19.0825 8.25 19.9725Z" fill="url(#paint0_linear)"/>
<defs>
<linearGradient id="paint0_linear" x1="29.25" y1="0" x2="29.25" y2="50" gradientUnits="userSpaceOnUse">
<stop stop-color="#EC0008"/>
<stop offset="1" stop-color="#B72126"/>
</linearGradient>
</defs>
</svg>
