<svg width="26" height="30" viewBox="0 0 26 30" fill="none" xmlns="http://www.w3.org/2000/svg">
<path d="M12.204 2.5C17.3977 2.5 15.5002 10 15.5002 10C15.5002 10 23.0002 7.9375 23.0002 13.0712V27.5H3.00024V2.5H12.204ZM13.2365 0H0.500244V30H25.5002V12.0175C25.5002 9.02875 17.1902 0 13.2365 0ZM19.2502 16.25H15.9652V20.8575H17.099V19.0175H18.9615V18.1025H17.099V17.23H19.2502V16.25ZM13.1252 16.25H11.1265V20.8575H13.1252C13.7965 20.8575 14.3265 20.6312 14.7027 20.1887C15.3965 19.3662 15.4365 17.6462 14.6252 16.8237C14.2527 16.4487 13.7352 16.25 13.1252 16.25ZM12.2602 17.2288H12.8802C13.4715 17.2288 13.8827 17.445 14.024 18.0338C14.104 18.3675 14.1202 18.8825 13.9977 19.2188C13.8377 19.6575 13.5215 19.8787 13.0552 19.8787H12.259V17.2288H12.2602ZM8.83525 16.25H6.75024V20.8575H7.884V19.2612H8.83525C9.609 19.2612 10.1652 18.915 10.3652 18.3075C10.484 17.9437 10.484 17.5613 10.3652 17.2013C10.1652 16.5963 9.60775 16.25 8.83525 16.25ZM7.884 17.165H8.56649C8.86024 17.165 9.15025 17.2 9.2865 17.45C9.37025 17.6038 9.37025 17.9075 9.2865 18.0613C9.15025 18.31 8.86024 18.345 8.56649 18.345H7.884V17.165Z" fill="url(#paint0_linear)"/>
<defs>
<linearGradient id="paint0_linear" x1="13.0002" y1="0" x2="13.0002" y2="30" gradientUnits="userSpaceOnUse">
<stop stop-color="#EC0008"/>
<stop offset="1" stop-color="#B72126"/>
</linearGradient>
</defs>
</svg>
