<svg width="55" height="55" viewBox="0 0 55 55" fill="none" xmlns="http://www.w3.org/2000/svg">
<path d="M27.5 43.5417C37.8125 34.6202 45.8333 27.7933 45.8333 17.8063C45.8333 7.97271 37.6246 0 27.5 0C17.3754 0 9.16667 7.97271 9.16667 17.8063C9.16667 27.7933 17.1875 34.6202 27.5 43.5417ZM14.2977 20.625H20.625V16.0417H14.2404C15.141 10.4362 19.5663 6.00646 25.2083 5.04396V11.4583H29.7917V5.04396C35.4338 6.00646 39.859 10.4362 40.7596 16.0417H34.375V20.625H40.7023C39.6665 26.0517 35.3077 30.3027 29.7917 31.24V25.2083H25.2083V31.24C19.6946 30.3027 15.3335 26.0517 14.2977 20.625ZM45.8333 36.6667H41.706C40.2646 38.209 38.6902 39.726 37.0288 41.25H42.9985L44.1444 43.5417H34.4781L31.8519 45.8333H34.2008L36.1671 50.4167H19.0094L20.9756 45.8333H23.1458C22.2544 45.0633 21.3767 44.3002 20.5173 43.5417H15.9454L13.6285 41.25H17.9713C16.3098 39.7283 14.74 38.209 13.2985 36.6667H9.16667L0 55H55L45.8333 36.6667ZM16.5138 50.4167H7.41583L11.4583 42.3317L14.9325 45.8333H18.4823L16.5138 50.4167ZM36.6987 45.8333H45.2925L47.5842 50.4167H38.665L36.6987 45.8333Z" fill="url(#paint0_linear)"/>
<defs>
<linearGradient id="paint0_linear" x1="27.5" y1="0" x2="27.5" y2="55" gradientUnits="userSpaceOnUse">
<stop stop-color="#EC0008"/>
<stop offset="1" stop-color="#B72126"/>
</linearGradient>
</defs>
</svg>
