<svg width="51" height="51" viewBox="0 0 51 51" fill="none" xmlns="http://www.w3.org/2000/svg">
<path d="M33.9957 8.53243C39.8234 11.892 45.0026 17.557 45.9903 25.9056C42.8805 23.9256 39.2459 23.0112 35.6755 23.3091C32.8934 17.4562 26.5065 13.6658 19.659 14.2364C18.1809 11.1197 15.6669 8.54618 12.564 6.91681C20.3419 3.61451 27.8242 5.04681 33.9957 8.53243ZM35.3569 1.43743L34.1263 3.52514C29.6644 1.42139 25.3607 0.529931 21.3548 0.529931C12.2455 0.529931 4.68068 5.13618 0.294428 10.5789C7.19464 7.40264 15.8388 12.2953 16.4828 19.7433C23.289 16.6128 31.8576 21.3428 32.5015 28.8114C39.3971 25.6351 48.2109 30.6195 48.8617 38.072C52.5994 28.8778 51.4421 14.846 38.1688 5.82597L39.4017 3.7291C40.0457 2.63139 39.6653 1.23118 38.5469 0.598681C37.4148 -0.0384026 35.9963 0.351181 35.3569 1.43743ZM26.3507 25.8643L13.1255 47.2708C11.228 50.5593 7.02047 51.6822 3.72964 49.787C0.443386 47.8895 -0.684114 43.6843 1.21339 40.3981L2.35922 38.4135L6.32839 40.7051L5.18255 42.6897C4.55235 43.7806 4.92818 45.1853 6.0213 45.8178C7.11901 46.4481 8.5238 46.0722 9.15401 44.9814L22.4067 23.5291C24.0155 23.8591 25.2048 24.5031 26.3507 25.8643Z" fill="url(#paint0_linear)"/>
<defs>
<linearGradient id="paint0_linear" x1="25.5017" y1="0.291504" x2="25.5017" y2="50.7079" gradientUnits="userSpaceOnUse">
<stop stop-color="#EC0008"/>
<stop offset="1" stop-color="#B72126"/>
</linearGradient>
</defs>
</svg>
